<svg xmlns="http://www.w3.org/2000/svg" xmlns:xlink="http://www.w3.org/1999/xlink" width="120" zoomAndPan="magnify" viewBox="0 0 90 33.749998" height="45" preserveAspectRatio="xMidYMid meet" version="1.0"><defs><g/><clipPath id="60fb296a1c"><path d="M 0.640625 0.667969 L 27 0.667969 L 27 27 L 0.640625 27 Z M 0.640625 0.667969 " clip-rule="nonzero"/></clipPath><clipPath id="98e49ec276"><path d="M 68 20 L 78 20 L 78 31.875 L 68 31.875 Z M 68 20 " clip-rule="nonzero"/></clipPath><clipPath id="ee3397057c"><path d="M 67.445312 30.285156 L 68.917969 20.375 L 79.019531 21.875 L 77.546875 31.785156 Z M 67.445312 30.285156 " clip-rule="nonzero"/></clipPath><clipPath id="2c51d0a904"><path d="M 67.445312 30.285156 L 68.917969 20.375 L 79.019531 21.875 L 77.546875 31.785156 Z M 67.445312 30.285156 " clip-rule="nonzero"/></clipPath><clipPath id="9950381e03"><path d="M 67.453125 30.285156 L 68.9375 20.296875 L 78.972656 21.789062 L 77.488281 31.777344 Z M 67.453125 30.285156 " clip-rule="nonzero"/></clipPath><clipPath id="9ff1b8b8a5"><rect x="0" width="86" y="0" height="32"/></clipPath></defs><g transform="matrix(1, 0, 0, 1, 1, 1)"><g clip-path="url(#9ff1b8b8a5)"><g clip-path="url(#60fb296a1c)"><path fill="#ffffff" d="M 23.117188 3.058594 L 8.734375 7.183594 C 8.519531 7.238281 8.308594 7.34375 8.152344 7.449219 L 7.570312 6.867188 C 8.890625 5.121094 8.46875 2.582031 6.511719 1.367188 C 4.132812 -0.167969 1.011719 1.417969 0.746094 4.117188 C 0.640625 5.28125 1.011719 6.390625 1.855469 7.238281 C 2.066406 7.449219 2.386719 7.449219 2.597656 7.238281 C 2.808594 7.023438 2.808594 6.707031 2.597656 6.496094 C 1.960938 5.859375 1.699219 5.066406 1.75 4.222656 C 2.015625 2.316406 4.183594 1.101562 5.929688 2.210938 C 7.464844 3.164062 7.675781 5.28125 6.457031 6.496094 C 6.246094 6.707031 6.246094 7.023438 6.457031 7.238281 L 7.410156 8.1875 C 7.304688 8.347656 7.199219 8.558594 7.144531 8.769531 L 3.019531 23.15625 C 2.386719 25.429688 5.1875 27.125 6.882812 25.429688 C 7.09375 25.21875 7.09375 24.902344 6.882812 24.691406 C 6.667969 24.480469 6.351562 24.480469 6.140625 24.691406 C 5.242188 25.589844 3.707031 24.691406 4.078125 23.472656 L 8.203125 9.085938 C 8.308594 8.664062 8.625 8.347656 9.050781 8.242188 L 23.4375 4.0625 C 24.652344 3.691406 25.550781 5.226562 24.652344 6.125 C 24.441406 6.335938 24.441406 6.65625 24.652344 6.867188 C 24.863281 7.078125 25.179688 7.078125 25.394531 6.867188 C 27.085938 5.226562 25.394531 2.421875 23.117188 3.058594 Z M 23.117188 3.058594 " fill-opacity="1" fill-rule="nonzero"/></g><g fill="#ffffff" fill-opacity="1"><g transform="translate(8.521154, 22.348544)"><g><path d="M 4.3125 -4.640625 L 4.3125 -6.484375 L 7.640625 -6.484375 L 7.640625 -2.203125 C 7.640625 -0.609375 6.894531 0.1875 5.40625 0.1875 L 3.140625 0.1875 C 1.648438 0.1875 0.90625 -0.609375 0.90625 -2.203125 L 0.90625 -9.46875 C 0.90625 -11.050781 1.648438 -11.84375 3.140625 -11.84375 L 5.40625 -11.84375 C 6.894531 -11.84375 7.640625 -11.050781 7.640625 -9.46875 L 7.640625 -8.359375 L 5.25 -8.359375 L 5.25 -9.765625 C 5.25 -9.867188 5.210938 -9.957031 5.140625 -10.03125 C 5.078125 -10.101562 5 -10.140625 4.90625 -10.140625 L 3.765625 -10.140625 C 3.671875 -10.140625 3.585938 -10.101562 3.515625 -10.03125 C 3.453125 -9.957031 3.421875 -9.867188 3.421875 -9.765625 L 3.421875 -1.90625 C 3.421875 -1.8125 3.453125 -1.726562 3.515625 -1.65625 C 3.585938 -1.582031 3.671875 -1.546875 3.765625 -1.546875 L 4.90625 -1.546875 C 5 -1.546875 5.078125 -1.582031 5.140625 -1.65625 C 5.210938 -1.726562 5.25 -1.8125 5.25 -1.90625 L 5.25 -4.640625 Z M 4.3125 -4.640625 "/></g></g></g><g fill="#ffffff" fill-opacity="1"><g transform="translate(16.655656, 22.348544)"><g><path d="M 5.53125 -11.84375 C 7.019531 -11.84375 7.765625 -11.050781 7.765625 -9.46875 L 7.765625 0 L 5.25 0 L 5.25 -3.90625 L 3.421875 -3.90625 L 3.421875 0 L 0.90625 0 L 0.90625 -9.46875 C 0.90625 -11.050781 1.648438 -11.84375 3.140625 -11.84375 Z M 3.421875 -5.859375 L 5.25 -5.859375 L 5.25 -9.765625 C 5.25 -9.867188 5.210938 -9.957031 5.140625 -10.03125 C 5.078125 -10.101562 5 -10.140625 4.90625 -10.140625 L 3.765625 -10.140625 C 3.671875 -10.140625 3.585938 -10.101562 3.515625 -10.03125 C 3.453125 -9.957031 3.421875 -9.867188 3.421875 -9.765625 Z M 3.421875 -5.859375 "/></g></g></g><g fill="#ffffff" fill-opacity="1"><g transform="translate(25.403403, 22.348544)"><g><path d="M 3.421875 -4.78125 L 3.421875 0 L 0.90625 0 L 0.90625 -11.671875 L 5.390625 -11.671875 C 6.878906 -11.671875 7.625 -10.875 7.625 -9.28125 L 7.625 -7.9375 C 7.625 -6.96875 7.28125 -6.351562 6.59375 -6.09375 C 7.195312 -5.875 7.5 -5.378906 7.5 -4.609375 L 7.5 0 L 4.984375 0 L 4.984375 -4.421875 C 4.984375 -4.660156 4.867188 -4.78125 4.640625 -4.78125 Z M 3.421875 -9.953125 L 3.421875 -6.546875 L 4.765625 -6.546875 C 4.859375 -6.546875 4.9375 -6.582031 5 -6.65625 C 5.070312 -6.726562 5.109375 -6.8125 5.109375 -6.90625 L 5.109375 -9.59375 C 5.109375 -9.6875 5.070312 -9.769531 5 -9.84375 C 4.9375 -9.914062 4.859375 -9.953125 4.765625 -9.953125 Z M 3.421875 -9.953125 "/></g></g></g><g fill="#ffffff" fill-opacity="1"><g transform="translate(33.754346, 22.348544)"><g><path d="M 3.421875 -11.671875 L 3.421875 0 L 0.90625 0 L 0.90625 -11.671875 Z M 3.421875 -11.671875 "/></g></g></g><g fill="#ffffff" fill-opacity="1"><g transform="translate(38.155275, 22.348544)"><g><path d="M 3.40625 0 L 0.890625 0 L 0.890625 -9.46875 C 0.890625 -11.050781 1.632812 -11.84375 3.125 -11.84375 L 4.453125 -11.84375 C 5.328125 -11.84375 5.953125 -11.554688 6.328125 -10.984375 C 6.679688 -11.554688 7.304688 -11.84375 8.203125 -11.84375 L 9.53125 -11.84375 C 11.03125 -11.84375 11.78125 -11.050781 11.78125 -9.46875 L 11.78125 0 L 9.25 0 L 9.25 -9.6875 C 9.25 -9.78125 9.210938 -9.863281 9.140625 -9.9375 C 9.078125 -10.007812 9 -10.046875 8.90625 -10.046875 L 7.9375 -10.046875 C 7.84375 -10.046875 7.757812 -10.007812 7.6875 -9.9375 C 7.625 -9.863281 7.59375 -9.78125 7.59375 -9.6875 L 7.59375 0 L 5.0625 0 L 5.0625 -9.6875 C 5.0625 -9.78125 5.03125 -9.863281 4.96875 -9.9375 C 4.90625 -10.007812 4.820312 -10.046875 4.71875 -10.046875 L 3.75 -10.046875 C 3.65625 -10.046875 3.570312 -10.007812 3.5 -9.9375 C 3.4375 -9.863281 3.40625 -9.78125 3.40625 -9.6875 Z M 3.40625 0 "/></g></g></g><g fill="#ffffff" fill-opacity="1"><g transform="translate(50.762852, 22.348544)"><g><path d="M 5.453125 -11.671875 C 6.941406 -11.671875 7.6875 -10.875 7.6875 -9.28125 L 7.6875 -6.953125 C 7.6875 -5.367188 6.941406 -4.578125 5.453125 -4.578125 L 3.40625 -4.578125 L 3.40625 0 L 0.890625 0 L 0.890625 -11.671875 Z M 5.15625 -6.671875 L 5.15625 -9.578125 C 5.15625 -9.671875 5.117188 -9.753906 5.046875 -9.828125 C 4.984375 -9.898438 4.90625 -9.9375 4.8125 -9.9375 L 3.40625 -9.9375 L 3.40625 -6.3125 L 4.8125 -6.3125 C 4.90625 -6.3125 4.984375 -6.347656 5.046875 -6.421875 C 5.117188 -6.492188 5.15625 -6.578125 5.15625 -6.671875 Z M 5.15625 -6.671875 "/></g></g></g><g fill="#ffffff" fill-opacity="1"><g transform="translate(58.807171, 22.348544)"><g><path d="M 7.765625 -9.46875 L 7.765625 -2.203125 C 7.765625 -0.609375 7.019531 0.1875 5.53125 0.1875 L 3.140625 0.1875 C 1.648438 0.1875 0.90625 -0.609375 0.90625 -2.203125 L 0.90625 -9.46875 C 0.90625 -11.050781 1.648438 -11.84375 3.140625 -11.84375 L 5.53125 -11.84375 C 7.019531 -11.84375 7.765625 -11.050781 7.765625 -9.46875 Z M 5.25 -1.90625 L 5.25 -9.765625 C 5.25 -9.867188 5.210938 -9.957031 5.140625 -10.03125 C 5.078125 -10.101562 5 -10.140625 4.90625 -10.140625 L 3.765625 -10.140625 C 3.671875 -10.140625 3.585938 -10.101562 3.515625 -10.03125 C 3.453125 -9.957031 3.421875 -9.867188 3.421875 -9.765625 L 3.421875 -1.90625 C 3.421875 -1.8125 3.453125 -1.726562 3.515625 -1.65625 C 3.585938 -1.582031 3.671875 -1.546875 3.765625 -1.546875 L 4.90625 -1.546875 C 5 -1.546875 5.078125 -1.582031 5.140625 -1.65625 C 5.210938 -1.726562 5.25 -1.8125 5.25 -1.90625 Z M 5.25 -1.90625 "/></g></g></g><g fill="#ffffff" fill-opacity="1"><g transform="translate(67.536881, 22.348544)"><g><path d="M 1.0625 -1.109375 C 1.0625 -1.472656 1.1875 -1.78125 1.4375 -2.03125 C 1.695312 -2.289062 2.003906 -2.421875 2.359375 -2.421875 C 2.722656 -2.421875 3.03125 -2.289062 3.28125 -2.03125 C 3.53125 -1.78125 3.65625 -1.472656 3.65625 -1.109375 C 3.65625 -0.753906 3.53125 -0.445312 3.28125 -0.1875 C 3.03125 0.0625 2.722656 0.1875 2.359375 0.1875 C 2.003906 0.1875 1.695312 0.0625 1.4375 -0.1875 C 1.1875 -0.445312 1.0625 -0.753906 1.0625 -1.109375 Z M 1.0625 -1.109375 "/></g></g></g><g fill="#ffffff" fill-opacity="1"><g transform="translate(72.118174, 22.348544)"><g><path d="M 5.53125 -11.84375 C 7.019531 -11.84375 7.765625 -11.050781 7.765625 -9.46875 L 7.765625 0 L 5.25 0 L 5.25 -3.90625 L 3.421875 -3.90625 L 3.421875 0 L 0.90625 0 L 0.90625 -9.46875 C 0.90625 -11.050781 1.648438 -11.84375 3.140625 -11.84375 Z M 3.421875 -5.859375 L 5.25 -5.859375 L 5.25 -9.765625 C 5.25 -9.867188 5.210938 -9.957031 5.140625 -10.03125 C 5.078125 -10.101562 5 -10.140625 4.90625 -10.140625 L 3.765625 -10.140625 C 3.671875 -10.140625 3.585938 -10.101562 3.515625 -10.03125 C 3.453125 -9.957031 3.421875 -9.867188 3.421875 -9.765625 Z M 3.421875 -5.859375 "/></g></g></g><g fill="#ffffff" fill-opacity="1"><g transform="translate(80.865924, 22.348544)"><g><path d="M 3.421875 -11.671875 L 3.421875 0 L 0.90625 0 L 0.90625 -11.671875 Z M 3.421875 -11.671875 "/></g></g></g><g fill="#ffffff" fill-opacity="1"><g transform="translate(18.956615, 29.118175)"><g><path d="M 1.1875 0 L 0.3125 0 L 0.3125 -3.28125 C 0.3125 -3.832031 0.566406 -4.109375 1.078125 -4.109375 L 1.546875 -4.109375 C 1.847656 -4.109375 2.0625 -4.007812 2.1875 -3.8125 C 2.3125 -4.007812 2.53125 -4.109375 2.84375 -4.109375 L 3.3125 -4.109375 C 3.820312 -4.109375 4.078125 -3.832031 4.078125 -3.28125 L 4.078125 0 L 3.203125 0 L 3.203125 -3.359375 C 3.203125 -3.390625 3.191406 -3.414062 3.171875 -3.4375 C 3.148438 -3.46875 3.125 -3.484375 3.09375 -3.484375 L 2.75 -3.484375 C 2.71875 -3.484375 2.6875 -3.46875 2.65625 -3.4375 C 2.632812 -3.414062 2.625 -3.390625 2.625 -3.359375 L 2.625 0 L 1.75 0 L 1.75 -3.359375 C 1.75 -3.390625 1.738281 -3.414062 1.71875 -3.4375 C 1.695312 -3.46875 1.671875 -3.484375 1.640625 -3.484375 L 1.296875 -3.484375 C 1.265625 -3.484375 1.238281 -3.46875 1.21875 -3.4375 C 1.195312 -3.414062 1.1875 -3.390625 1.1875 -3.359375 Z M 1.1875 0 "/></g></g></g><g fill="#ffffff" fill-opacity="1"><g transform="translate(23.856789, 29.118175)"><g><path d="M 2.6875 -3.28125 L 2.6875 -0.765625 C 2.6875 -0.210938 2.429688 0.0625 1.921875 0.0625 L 1.09375 0.0625 C 0.570312 0.0625 0.3125 -0.210938 0.3125 -0.765625 L 0.3125 -3.28125 C 0.3125 -3.832031 0.570312 -4.109375 1.09375 -4.109375 L 1.921875 -4.109375 C 2.429688 -4.109375 2.6875 -3.832031 2.6875 -3.28125 Z M 1.8125 -0.65625 L 1.8125 -3.390625 C 1.8125 -3.421875 1.800781 -3.445312 1.78125 -3.46875 C 1.757812 -3.5 1.734375 -3.515625 1.703125 -3.515625 L 1.3125 -3.515625 C 1.269531 -3.515625 1.238281 -3.5 1.21875 -3.46875 C 1.195312 -3.445312 1.1875 -3.421875 1.1875 -3.390625 L 1.1875 -0.65625 C 1.1875 -0.625 1.195312 -0.59375 1.21875 -0.5625 C 1.238281 -0.539062 1.269531 -0.53125 1.3125 -0.53125 L 1.703125 -0.53125 C 1.734375 -0.53125 1.757812 -0.539062 1.78125 -0.5625 C 1.800781 -0.59375 1.8125 -0.625 1.8125 -0.65625 Z M 1.8125 -0.65625 "/></g></g></g><g fill="#ffffff" fill-opacity="1"><g transform="translate(27.413203, 29.118175)"><g><path d="M 1.921875 -4.046875 C 2.429688 -4.046875 2.6875 -3.769531 2.6875 -3.21875 L 2.6875 -0.828125 C 2.6875 -0.273438 2.429688 0 1.921875 0 L 0.3125 0 L 0.3125 -4.046875 Z M 1.8125 -0.71875 L 1.8125 -3.328125 C 1.8125 -3.359375 1.800781 -3.382812 1.78125 -3.40625 C 1.757812 -3.4375 1.734375 -3.453125 1.703125 -3.453125 L 1.1875 -3.453125 L 1.1875 -0.59375 L 1.703125 -0.59375 C 1.734375 -0.59375 1.757812 -0.601562 1.78125 -0.625 C 1.800781 -0.65625 1.8125 -0.6875 1.8125 -0.71875 Z M 1.8125 -0.71875 "/></g></g></g><g fill="#ffffff" fill-opacity="1"><g transform="translate(30.975867, 29.118175)"><g><path d="M 1.921875 -4.109375 C 2.429688 -4.109375 2.6875 -3.832031 2.6875 -3.28125 L 2.6875 0 L 1.8125 0 L 1.8125 -1.359375 L 1.1875 -1.359375 L 1.1875 0 L 0.3125 0 L 0.3125 -3.28125 C 0.3125 -3.832031 0.570312 -4.109375 1.09375 -4.109375 Z M 1.1875 -2.03125 L 1.8125 -2.03125 L 1.8125 -3.390625 C 1.8125 -3.421875 1.800781 -3.445312 1.78125 -3.46875 C 1.757812 -3.5 1.734375 -3.515625 1.703125 -3.515625 L 1.3125 -3.515625 C 1.269531 -3.515625 1.238281 -3.5 1.21875 -3.46875 C 1.195312 -3.445312 1.1875 -3.421875 1.1875 -3.390625 Z M 1.1875 -2.03125 "/></g></g></g><g fill="#ffffff" fill-opacity="1"><g transform="translate(34.538531, 29.118175)"><g/></g></g><g fill="#ffffff" fill-opacity="1"><g transform="translate(36.332428, 29.118175)"><g><path d="M 1.1875 -4.046875 L 1.1875 0 L 0.3125 0 L 0.3125 -4.046875 Z M 1.1875 -4.046875 "/></g></g></g><g fill="#ffffff" fill-opacity="1"><g transform="translate(38.388829, 29.118175)"><g><path d="M 2.625 0 L 1.75 0 L 1.75 -3.359375 C 1.75 -3.390625 1.738281 -3.414062 1.71875 -3.4375 C 1.695312 -3.46875 1.671875 -3.484375 1.640625 -3.484375 L 1.296875 -3.484375 C 1.265625 -3.484375 1.238281 -3.46875 1.21875 -3.4375 C 1.195312 -3.414062 1.1875 -3.390625 1.1875 -3.359375 L 1.1875 0 L 0.3125 0 L 0.3125 -3.28125 C 0.3125 -3.832031 0.566406 -4.109375 1.078125 -4.109375 L 1.859375 -4.109375 C 2.367188 -4.109375 2.625 -3.832031 2.625 -3.28125 Z M 2.625 0 "/></g></g></g><g fill="#ffffff" fill-opacity="1"><g transform="translate(41.826491, 29.118175)"><g><path d="M 0.078125 -3.296875 L 0.078125 -4.046875 L 2.265625 -4.046875 L 2.265625 -3.296875 L 1.609375 -3.296875 L 1.609375 0 L 0.734375 0 L 0.734375 -3.296875 Z M 0.078125 -3.296875 "/></g></g></g><g fill="#ffffff" fill-opacity="1"><g transform="translate(44.714148, 29.118175)"><g><path d="M 1.1875 -0.71875 L 2.15625 -0.71875 L 2.15625 0 L 0.3125 0 L 0.3125 -4.046875 L 2.15625 -4.046875 L 2.15625 -3.328125 L 1.1875 -3.328125 L 1.1875 -2.375 L 2.09375 -2.375 L 2.09375 -1.6875 L 1.1875 -1.6875 Z M 1.1875 -0.71875 "/></g></g></g><g fill="#ffffff" fill-opacity="1"><g transform="translate(47.595554, 29.118175)"><g><path d="M 1.1875 -0.734375 L 2.140625 -0.734375 L 2.140625 0 L 0.3125 0 L 0.3125 -4.046875 L 1.1875 -4.046875 Z M 1.1875 -0.734375 "/></g></g></g><g fill="#ffffff" fill-opacity="1"><g transform="translate(50.37071, 29.118175)"><g><path d="M 1.1875 -4.046875 L 1.1875 0 L 0.3125 0 L 0.3125 -4.046875 Z M 1.1875 -4.046875 "/></g></g></g><g fill="#ffffff" fill-opacity="1"><g transform="translate(52.42711, 29.118175)"><g><path d="M 1.5 -1.609375 L 1.5 -2.25 L 2.65625 -2.25 L 2.65625 -0.765625 C 2.65625 -0.210938 2.394531 0.0625 1.875 0.0625 L 1.09375 0.0625 C 0.570312 0.0625 0.3125 -0.210938 0.3125 -0.765625 L 0.3125 -3.28125 C 0.3125 -3.832031 0.570312 -4.109375 1.09375 -4.109375 L 1.875 -4.109375 C 2.394531 -4.109375 2.65625 -3.832031 2.65625 -3.28125 L 2.65625 -2.90625 L 1.8125 -2.90625 L 1.8125 -3.390625 C 1.8125 -3.421875 1.800781 -3.445312 1.78125 -3.46875 C 1.757812 -3.5 1.734375 -3.515625 1.703125 -3.515625 L 1.3125 -3.515625 C 1.269531 -3.515625 1.238281 -3.5 1.21875 -3.46875 C 1.195312 -3.445312 1.1875 -3.421875 1.1875 -3.390625 L 1.1875 -0.65625 C 1.1875 -0.625 1.195312 -0.59375 1.21875 -0.5625 C 1.238281 -0.539062 1.269531 -0.53125 1.3125 -0.53125 L 1.703125 -0.53125 C 1.734375 -0.53125 1.757812 -0.539062 1.78125 -0.5625 C 1.800781 -0.59375 1.8125 -0.625 1.8125 -0.65625 L 1.8125 -1.609375 Z M 1.5 -1.609375 "/></g></g></g><g fill="#ffffff" fill-opacity="1"><g transform="translate(55.77727, 29.118175)"><g><path d="M 1.1875 -0.71875 L 2.15625 -0.71875 L 2.15625 0 L 0.3125 0 L 0.3125 -4.046875 L 2.15625 -4.046875 L 2.15625 -3.328125 L 1.1875 -3.328125 L 1.1875 -2.375 L 2.09375 -2.375 L 2.09375 -1.6875 L 1.1875 -1.6875 Z M 1.1875 -0.71875 "/></g></g></g><g fill="#ffffff" fill-opacity="1"><g transform="translate(58.658676, 29.118175)"><g><path d="M 2.625 0 L 1.75 0 L 1.75 -3.359375 C 1.75 -3.390625 1.738281 -3.414062 1.71875 -3.4375 C 1.695312 -3.46875 1.671875 -3.484375 1.640625 -3.484375 L 1.296875 -3.484375 C 1.265625 -3.484375 1.238281 -3.46875 1.21875 -3.4375 C 1.195312 -3.414062 1.1875 -3.390625 1.1875 -3.359375 L 1.1875 0 L 0.3125 0 L 0.3125 -3.28125 C 0.3125 -3.832031 0.566406 -4.109375 1.078125 -4.109375 L 1.859375 -4.109375 C 2.367188 -4.109375 2.625 -3.832031 2.625 -3.28125 Z M 2.625 0 "/></g></g></g><g fill="#ffffff" fill-opacity="1"><g transform="translate(62.096338, 29.118175)"><g><path d="M 0.078125 -3.296875 L 0.078125 -4.046875 L 2.265625 -4.046875 L 2.265625 -3.296875 L 1.609375 -3.296875 L 1.609375 0 L 0.734375 0 L 0.734375 -3.296875 Z M 0.078125 -3.296875 "/></g></g></g><g fill="#ffffff" fill-opacity="1"><g transform="translate(64.983995, 29.118175)"><g><path d="M 1.1875 -0.71875 L 2.15625 -0.71875 L 2.15625 0 L 0.3125 0 L 0.3125 -4.046875 L 2.15625 -4.046875 L 2.15625 -3.328125 L 1.1875 -3.328125 L 1.1875 -2.375 L 2.09375 -2.375 L 2.09375 -1.6875 L 1.1875 -1.6875 Z M 1.1875 -0.71875 "/></g></g></g><g clip-path="url(#98e49ec276)"><g clip-path="url(#ee3397057c)"><g clip-path="url(#2c51d0a904)"><g clip-path="url(#9950381e03)"><path fill="#ffffff" d="M 70.824219 21.03125 C 71.019531 21.296875 71.417969 22.058594 71.699219 22.773438 C 72.035156 23.625 72.125 24.214844 71.941406 24.351562 C 71.902344 24.382812 71.839844 24.394531 71.765625 24.382812 C 71.769531 24.371094 71.78125 24.359375 71.789062 24.351562 C 71.820312 24.308594 71.855469 24.269531 71.902344 24.238281 C 71.929688 24.21875 71.960938 24.199219 71.992188 24.183594 C 72.023438 24 71.972656 23.640625 71.769531 23.0625 L 71.347656 23.0625 C 71.160156 23.066406 70.992188 23.1875 70.9375 23.367188 L 70.792969 23.835938 L 70.78125 23.871094 C 70.695312 23.804688 70.601562 23.734375 70.503906 23.660156 C 69.902344 23.183594 69.289062 22.578125 69.09375 22.316406 C 68.921875 22.082031 68.851562 21.800781 68.894531 21.515625 C 68.9375 21.230469 69.085938 20.980469 69.316406 20.808594 C 69.792969 20.457031 70.46875 20.554688 70.824219 21.03125 Z M 69.238281 20.699219 C 68.976562 20.890625 68.804688 21.175781 68.757812 21.496094 C 68.710938 21.816406 68.792969 22.136719 68.984375 22.394531 C 69.183594 22.667969 69.808594 23.28125 70.417969 23.765625 C 70.53125 23.855469 70.636719 23.9375 70.742188 24.007812 L 70.730469 24.046875 L 70.195312 25.773438 C 70.15625 25.902344 70.179688 26.046875 70.261719 26.15625 L 73.941406 31.121094 C 74.085938 31.3125 74.355469 31.355469 74.546875 31.210938 L 77.800781 28.800781 C 77.996094 28.65625 78.035156 28.386719 77.890625 28.195312 L 74.210938 23.230469 C 74.128906 23.121094 74 23.054688 73.863281 23.054688 L 71.988281 23.0625 C 72.148438 23.523438 72.222656 23.882812 72.207031 24.128906 C 72.382812 24.121094 72.5625 24.199219 72.679688 24.355469 C 72.863281 24.601562 72.808594 24.949219 72.5625 25.132812 C 72.316406 25.316406 71.96875 25.261719 71.785156 25.015625 C 71.679688 24.875 71.652344 24.703125 71.691406 24.546875 C 71.695312 24.535156 71.699219 24.523438 71.703125 24.511719 C 71.839844 24.535156 71.945312 24.519531 72.023438 24.460938 C 72.097656 24.40625 72.144531 24.316406 72.164062 24.191406 C 72.207031 23.898438 72.09375 23.40625 71.824219 22.722656 C 71.539062 22 71.132812 21.222656 70.933594 20.953125 C 70.535156 20.414062 69.773438 20.300781 69.238281 20.699219 " fill-opacity="1" fill-rule="nonzero"/></g></g></g></g></g></g></svg>